<svg width="53" height="53" viewBox="0 0 53 53" fill="none" xmlns="http://www.w3.org/2000/svg">
<path d="M23.875 39.625H29.125V29.125H39.625V23.875H29.125V13.375H23.875V23.875H13.375V29.125H23.875V39.625ZM26.5 52.75C22.8687 52.75 19.4563 52.0719 16.2625 50.7156C13.0688 49.3156 10.2906 47.4344 7.92813 45.0719C5.56563 42.7094 3.68438 39.9312 2.28438 36.7375C0.928125 33.5438 0.25 30.1313 0.25 26.5C0.25 22.8687 0.928125 19.4562 2.28438 16.2625C3.68438 13.0687 5.56563 10.2906 7.92813 7.92812C10.2906 5.56562 13.0688 3.70625 16.2625 2.35C19.4563 0.949999 22.8687 0.25 26.5 0.25C30.1313 0.25 33.5438 0.949999 36.7375 2.35C39.9313 3.70625 42.7094 5.56562 45.0719 7.92812C47.4344 10.2906 49.2938 13.0687 50.65 16.2625C52.05 19.4562 52.75 22.8687 52.75 26.5C52.75 30.1313 52.05 33.5438 50.65 36.7375C49.2938 39.9312 47.4344 42.7094 45.0719 45.0719C42.7094 47.4344 39.9313 49.3156 36.7375 50.7156C33.5438 52.0719 30.1313 52.75 26.5 52.75ZM26.5 47.5C32.3625 47.5 37.3281 45.4656 41.3969 41.3969C45.4656 37.3281 47.5 32.3625 47.5 26.5C47.5 20.6375 45.4656 15.6719 41.3969 11.6031C37.3281 7.53437 32.3625 5.5 26.5 5.5C20.6375 5.5 15.6719 7.53437 11.6031 11.6031C7.53437 15.6719 5.5 20.6375 5.5 26.5C5.5 32.3625 7.53437 37.3281 11.6031 41.3969C15.6719 45.4656 20.6375 47.5 26.5 47.5Z" fill="#1D1B20"/>
</svg>
