<svg viewBox="0 0 45 43" fill="none" xmlns="http://www.w3.org/2000/svg">
<path d="M14.4 31.7647L22.5 24.1412L30.6 31.7647L33.75 28.8L25.65 21.1765L33.75 13.5529L30.6 10.5882L22.5 18.2118L14.4 10.5882L11.25 13.5529L19.35 21.1765L11.25 28.8L14.4 31.7647ZM22.5 42.3529C19.3875 42.3529 16.4625 41.7971 13.725 40.6853C10.9875 39.5735 8.60625 38.0647 6.58125 36.1588C4.55625 34.2529 2.95313 32.0118 1.77188 29.4353C0.590625 26.8588 0 24.1059 0 21.1765C0 18.2471 0.590625 15.4941 1.77188 12.9176C2.95313 10.3412 4.55625 8.1 6.58125 6.19412C8.60625 4.28823 10.9875 2.77941 13.725 1.66765C16.4625 0.555882 19.3875 0 22.5 0C25.6125 0 28.5375 0.555882 31.275 1.66765C34.0125 2.77941 36.3938 4.28823 38.4188 6.19412C40.4438 8.1 42.0469 10.3412 43.2281 12.9176C44.4094 15.4941 45 18.2471 45 21.1765C45 24.1059 44.4094 26.8588 43.2281 29.4353C42.0469 32.0118 40.4438 34.2529 38.4188 36.1588C36.3938 38.0647 34.0125 39.5735 31.275 40.6853C28.5375 41.7971 25.6125 42.3529 22.5 42.3529ZM22.5 38.1176C27.525 38.1176 31.7812 36.4765 35.2687 33.1941C38.7563 29.9118 40.5 25.9059 40.5 21.1765C40.5 16.4471 38.7563 12.4412 35.2687 9.15882C31.7812 5.87647 27.525 4.23529 22.5 4.23529C17.475 4.23529 13.2188 5.87647 9.73125 9.15882C6.24375 12.4412 4.5 16.4471 4.5 21.1765C4.5 25.9059 6.24375 29.9118 9.73125 33.1941C13.2188 36.4765 17.475 38.1176 22.5 38.1176Z" fill="#B3261E"/>
</svg>
