<svg viewBox="0 0 35 35" fill="none" xmlns="http://www.w3.org/2000/svg">
<path d="M4.375 30.625H7.04688L25.375 12.2969L22.7031 9.625L4.375 27.9531V30.625ZM0.625 34.375V26.4062L25.375 1.70312C25.75 1.35938 26.1641 1.09375 26.6172 0.90625C27.0703 0.71875 27.5469 0.625 28.0469 0.625C28.5469 0.625 29.0313 0.71875 29.5 0.90625C29.9688 1.09375 30.375 1.375 30.7188 1.75L33.2969 4.375C33.6719 4.71875 33.9453 5.125 34.1172 5.59375C34.2891 6.0625 34.375 6.53125 34.375 7C34.375 7.5 34.2891 7.97656 34.1172 8.42969C33.9453 8.88281 33.6719 9.29688 33.2969 9.67188L8.59375 34.375H0.625ZM24.0156 10.9844L22.7031 9.625L25.375 12.2969L24.0156 10.9844Z" fill="#1D1B20"/>
</svg>
